<svg xmlns="http://www.w3.org/2000/svg" xmlns:xlink="http://www.w3.org/1999/xlink" id="Capa_1" x="0px" y="0px" viewBox="0 0 50 50" style="enable-background:new 0 0 50 50;" xml:space="preserve"> <style type="text/css"> .st0{fill:url(#SVGID_1_);} .st1{fill:#56262B;} .st2{fill:#230000;} .st3{fill:url(#SVGID_00000165924921147711437690000018387128481384437888_);} .st4{fill:#EBEBEB;} .st5{fill:url(#SVGID_00000098217137009526593820000006806424456482680456_);} .st6{fill:#1A1A1A;} .st7{fill:#FFFFFF;} .st8{fill:url(#SVGID_00000155859878155471975920000002135212245915799963_);} .st9{fill:#808080;} .st10{fill:#F2F2F2;} .st11{fill:url(#SVGID_00000134240022185516295810000005789328302455340720_);} .st12{fill:url(#SVGID_00000183928316163702218290000005045251073551959450_);} .st13{fill:#4D4D4D;} .st14{fill:#B3B3B3;} .st15{fill:url(#SVGID_00000070812539231489565210000017843007235976519850_);} .st16{fill:url(#SVGID_00000016775027601162905810000000555961661267575986_);} .st17{fill:url(#SVGID_00000008141192754738172530000016803321602686465928_);} .st18{fill:#666666;} .st19{fill:url(#SVGID_00000036940401157859741100000001782993605971188134_);} .st20{fill:url(#SVGID_00000014609256143896105220000001780040051856254139_);} .st21{fill:url(#SVGID_00000004503915813533862700000017404664747173061006_);} .st22{fill:#CCCCCC;} .st23{fill:url(#SVGID_00000000191875386047337900000008286485726938846354_);} .st24{fill:url(#SVGID_00000162331029600666585370000006679159188788435860_);} .st25{fill:url(#SVGID_00000125603155053925590870000007178629714917139845_);} .st26{fill:url(#SVGID_00000141438086704124582710000011471315345772378256_);} .st27{fill:url(#SVGID_00000067223296113520878290000008734124773967373493_);} .st28{fill:url(#SVGID_00000043428540703747232410000007631076302575559581_);} .st29{fill:url(#SVGID_00000166665188242739240030000000566322614150289305_);} .st30{fill:url(#SVGID_00000023981289258002087920000015961941023776461972_);} .st31{fill:url(#SVGID_00000147909694741629426950000004895490649778641850_);} .st32{fill:url(#SVGID_00000146484421414633631830000009224505896047234237_);} .st33{fill:url(#SVGID_00000052823069182583097470000014669665730628257414_);} .st34{fill:url(#SVGID_00000029031874207932072500000002586650659641064856_);} .st35{fill-rule:evenodd;clip-rule:evenodd;fill:url(#SVGID_00000052794659341790736040000017130617453241583279_);} .st36{fill:url(#SVGID_00000000187693894465140640000000590204095290400686_);} </style> <radialGradient id="SVGID_1_" cx="-181.512" cy="411.1415" r="1" gradientTransform="matrix(34.0746 0 0 -34.0746 6204.9697 14025.3789)" gradientUnits="userSpaceOnUse"> <stop offset="0" style="stop-color:#F88D9D"></stop> <stop offset="0.14" style="stop-color:#F98494"></stop> <stop offset="0.3" style="stop-color:#F77588"></stop> <stop offset="0.48" style="stop-color:#F45F7A"></stop> <stop offset="0.66" style="stop-color:#F23E58"></stop> <stop offset="0.72" style="stop-color:#EF3550"></stop> <stop offset="1" style="stop-color:#E31230"></stop> </radialGradient> <path class="st0" d="M0,25c0-4.9,1.5-9.8,4.2-13.9C7,7,10.9,3.8,15.4,1.9C20,0,25-0.5,29.9,0.5c4.8,1,9.3,3.3,12.8,6.8 c3.5,3.5,5.9,7.9,6.8,12.8c1,4.8,0.5,9.9-1.4,14.4c-1.9,4.6-5.1,8.5-9.2,11.2C34.8,48.5,30,50,25,50c-3.3,0-6.5-0.6-9.6-1.9 c-3-1.3-5.8-3.1-8.1-5.4s-4.2-5.1-5.4-8.1C0.6,31.5,0,28.3,0,25z"></path> <path class="st1" d="M25,1.9c-4.7,0-9.4,1.4-13.3,4c-3.9,2.6-7,6.4-8.8,10.8C1,21.1,0.6,25.9,1.5,30.6c0.9,4.7,3.2,8.9,6.6,12.3 c3.4,3.4,7.6,5.6,12.3,6.6c4.7,0.9,9.5,0.5,13.9-1.4c4.4-1.8,8.1-4.9,10.8-8.8c2.6-3.9,4-8.6,4-13.3c0-3.2-0.6-6.3-1.8-9.2 c-1.2-2.9-3-5.6-5.2-7.8c-2.2-2.2-4.9-4-7.8-5.2C31.3,2.5,28.2,1.9,25,1.9z M44.9,37.9l-3.3-0.7c-1.8,2.7-4.3,4.9-7.2,6.4 c-2.9,1.5-6.1,2.3-9.3,2.3c-3.3,0-6.5-0.8-9.3-2.3c-2.9-1.5-5.3-3.7-7.2-6.4l-3.3,0.7c-0.1,0-0.3,0-0.4-0.1 c-0.1-0.1-0.2-0.2-0.2-0.3c0-0.1,0-0.3,0.1-0.4L7,34.6c-1.4-2.9-2.1-6.2-2-9.4s1-6.4,2.7-9.3c1.6-2.8,3.9-5.2,6.7-6.9 c2.8-1.7,5.9-2.8,9.1-3l1.1-3.3c0-0.1,0.1-0.2,0.2-0.2c0.1-0.1,0.2-0.1,0.3-0.1c0.1,0,0.2,0,0.3,0.1c0.1,0.1,0.1,0.1,0.2,0.2l1,3.3 c3.2,0.2,6.4,1.3,9.1,3c2.8,1.7,5,4.1,6.7,6.9s2.5,6,2.7,9.3c0.1,3.3-0.6,6.5-2,9.4l2.3,2.5c0.1,0.1,0.1,0.2,0.1,0.3 c0,0.1,0,0.2-0.1,0.3c0,0.1-0.1,0.2-0.2,0.2C45.1,37.9,45,38,44.9,37.9z"></path> <path class="st1" d="M44.9,37.3l-5-5.4c-0.3,0.1-0.6,0.2-1,0.2c-0.3,0-0.7-0.1-1-0.2c-0.3-0.1-0.6-0.3-0.8-0.5 c-0.2-0.2-0.4-0.5-0.6-0.8c-0.1-0.2-0.1-0.4-0.2-0.6c-0.1-0.6-0.3-1.1-0.6-1.6c-0.3-0.5-0.7-0.9-1.2-1.2l-2-1.2l9.1-5.2l-1-1.8 l-10.1,5.8l-1.8-1v-2l10.1-5.8l-1-1.7l-9.1,5.2v-2.3c0-0.6-0.1-1.2-0.4-1.7c-0.3-0.5-0.6-1-1.1-1.3c-0.3-0.2-0.5-0.5-0.7-0.7 s-0.3-0.6-0.3-0.9c0-0.3,0-0.7,0.1-1c0.1-0.3,0.2-0.6,0.4-0.9c0.1-0.2,0.3-0.3,0.5-0.5l-2.1-7c0,0,0,0,0-0.1c0,0,0,0-0.1,0 c0,0-0.1,0-0.1,0c0,0,0,0,0,0.1l-2.1,7c0.3,0.2,0.5,0.5,0.7,0.7c0.2,0.3,0.3,0.6,0.3,0.9c0,0.3,0,0.7-0.1,1 c-0.1,0.3-0.2,0.6-0.4,0.9c-0.1,0.2-0.3,0.3-0.5,0.5c-0.5,0.4-0.8,0.8-1.1,1.3c-0.3,0.5-0.4,1.1-0.4,1.7v2.3l-9.1-5.2l-1,1.7 l10.1,5.8v2l-1.7,1L9.4,18.9l-1,1.7l9.1,5.2l-2.1,1.2c-0.5,0.3-0.9,0.7-1.3,1.2c-0.3,0.5-0.5,1-0.6,1.6c0,0.3-0.1,0.6-0.3,0.9 c-0.2,0.3-0.4,0.5-0.6,0.7c-0.3,0.2-0.6,0.3-0.9,0.4c-0.3,0.1-0.7,0.1-1,0.1c-0.2,0-0.4-0.1-0.6-0.2l-5,5.4c0,0,0,0,0,0.1 c0,0,0,0.1,0,0.1c0,0,0,0,0.1,0.1s0.1,0,0.1,0l7.2-1.7c0.1-0.7,0.4-1.3,1-1.7c0.5-0.4,1.2-0.6,1.9-0.5c0.2,0,0.4,0.1,0.6,0.2 c0.5,0.2,1.1,0.3,1.7,0.3c0.6,0,1.1-0.2,1.7-0.5l2-1.2v10.5h2V31.2l1.7-1l1.8,1v11.6h2V32.4l2,1.2c0.5,0.3,1.1,0.5,1.7,0.5 c0.6,0,1.2-0.1,1.7-0.3c0.4-0.2,0.8-0.2,1.1-0.2c0.4,0,0.8,0.1,1.1,0.3c0.3,0.2,0.6,0.5,0.8,0.8s0.4,0.7,0.4,1.1l7.2,1.7 c0,0,0.1,0,0.1,0c0,0,0,0,0.1-0.1C44.9,37.4,44.9,37.3,44.9,37.3C44.9,37.3,44.9,37.3,44.9,37.3z M25,27.9l-1.7-1v-2l1.7-1l1.8,1v2 L25,27.9z M23.2,17.1c0-0.2,0-0.5,0.1-0.7c0.1-0.2,0.2-0.4,0.3-0.6c0.2-0.2,0.3-0.3,0.5-0.4c0.2-0.1,0.4-0.2,0.7-0.2 c0.2,0,0.5,0,0.7,0.1c0.2,0.1,0.4,0.2,0.6,0.3c0.2,0.2,0.3,0.3,0.4,0.5c0.1,0.2,0.2,0.4,0.2,0.7c0,0.1,0,0.1,0,0.2v3.5l-1.8,1 l-1.7-1V17.1z M18.2,31.8c-0.4,0.2-0.9,0.3-1.3,0.1c-0.4-0.1-0.8-0.4-1-0.8c-0.2-0.4-0.3-0.9-0.2-1.3s0.4-0.8,0.8-1.1l3.1-1.7l1.8,1 v2L18.2,31.8z M34.1,31.2c-0.1,0.2-0.3,0.4-0.5,0.5c-0.2,0.1-0.4,0.2-0.6,0.3c-0.2,0.1-0.5,0.1-0.7,0c-0.2,0-0.4-0.1-0.6-0.2l-3-1.8 v-2l1.8-1l3,1.8c0.4,0.2,0.7,0.6,0.8,1C34.4,30.3,34.4,30.8,34.1,31.2L34.1,31.2z"></path> <path class="st2" d="M25,1.5c-4.7,0-9.4,1.4-13.3,4c-3.9,2.6-7,6.4-8.8,10.8s-2.3,9.2-1.4,13.9c0.9,4.7,3.2,8.9,6.6,12.3 c3.4,3.4,7.6,5.6,12.3,6.6c4.7,0.9,9.5,0.5,13.9-1.4s8.1-4.9,10.8-8.8c2.6-3.9,4-8.6,4-13.3c0-3.1-0.6-6.3-1.8-9.2 c-1.2-2.9-3-5.6-5.2-7.8c-2.2-2.2-4.9-4-7.8-5.2C31.3,2.1,28.2,1.5,25,1.5z M44.9,37.5l-3.3-0.7c-1.8,2.7-4.3,4.9-7.2,6.4 c-2.9,1.5-6.1,2.3-9.3,2.3c-3.3,0-6.5-0.8-9.3-2.3c-2.9-1.5-5.3-3.7-7.2-6.4l-3.3,0.7c-0.1,0-0.2,0-0.3,0c-0.1,0-0.2-0.1-0.2-0.2 c-0.1-0.1-0.1-0.2-0.1-0.3s0-0.2,0.1-0.3L7,34.2c-1.4-2.9-2.1-6.2-2-9.4c0.1-3.3,1-6.4,2.7-9.3c1.6-2.8,3.9-5.2,6.7-6.9 c2.8-1.7,5.9-2.8,9.2-3l1.1-3.3c0-0.1,0.1-0.2,0.2-0.2C24.8,2,24.9,2,25,2c0.1,0,0.2,0,0.3,0.1c0.1,0.1,0.1,0.1,0.2,0.2l1,3.3 c3.2,0.2,6.4,1.3,9.1,3c2.8,1.7,5,4.1,6.7,6.9c1.6,2.8,2.5,6,2.7,9.2c0.1,3.3-0.6,6.5-2,9.4l2.3,2.5c0.1,0.1,0.1,0.2,0.1,0.3 c0,0.1,0,0.2-0.1,0.3c0,0.1-0.1,0.2-0.2,0.2C45.1,37.5,45,37.5,44.9,37.5z"></path> <path class="st2" d="M44.9,36.9l-5-5.4c-0.3,0.1-0.6,0.2-1,0.2c-0.3,0-0.7-0.1-1-0.2c-0.3-0.1-0.6-0.3-0.8-0.5 c-0.2-0.2-0.4-0.5-0.5-0.8c-0.1-0.2-0.1-0.4-0.2-0.6c-0.1-0.6-0.3-1.1-0.6-1.6S35,27,34.5,26.7l-2-1.2l9.1-5.2l-1-1.7l-10.1,5.8 l-1.7-1v-2l10.1-5.8l-1-1.7L28.7,19v-2.3c0-0.6-0.1-1.2-0.4-1.7c-0.3-0.5-0.6-1-1.1-1.3c-0.3-0.2-0.5-0.5-0.7-0.7 c-0.2-0.3-0.3-0.6-0.3-0.9c0-0.3,0-0.7,0.1-1c0.1-0.3,0.2-0.6,0.4-0.9c0.1-0.2,0.3-0.3,0.5-0.5l-2.1-7c0,0,0,0,0-0.1c0,0,0,0-0.1,0 c0,0-0.1,0-0.1,0c0,0,0,0,0,0.1l-2.1,7c0.3,0.2,0.5,0.5,0.6,0.7c0.2,0.3,0.3,0.6,0.3,0.9c0,0.3,0,0.7-0.1,1 c-0.1,0.3-0.2,0.6-0.4,0.9c-0.1,0.2-0.3,0.3-0.5,0.5c-0.5,0.4-0.8,0.8-1.1,1.3c-0.3,0.5-0.4,1.1-0.4,1.7V19l-9.1-5.3l-1,1.7 l10.1,5.8v2l-1.7,1L9.5,18.5l-1,1.7l9.1,5.2l-2,1.2c-0.5,0.3-0.9,0.7-1.3,1.2c-0.3,0.5-0.5,1-0.6,1.6c0,0.3-0.1,0.6-0.3,0.9 c-0.2,0.3-0.4,0.5-0.6,0.7c-0.3,0.2-0.6,0.4-0.9,0.4c-0.3,0.1-0.7,0.1-1,0.1c-0.2,0-0.4-0.1-0.6-0.2l-5,5.4c0,0,0,0,0,0.1 c0,0,0,0.1,0,0.1c0,0,0,0,0.1,0.1s0.1,0,0.1,0l7.2-1.7c0.1-0.7,0.4-1.3,1-1.7c0.5-0.4,1.2-0.6,1.9-0.5c0.2,0,0.4,0.1,0.6,0.2 c0.5,0.2,1.1,0.3,1.7,0.3c0.6,0,1.1-0.2,1.7-0.5l2-1.2v10.5h2V30.9l1.7-1l1.7,1v11.6h2V32l2,1.2c0.5,0.3,1.1,0.5,1.6,0.5 c0.6,0,1.2-0.1,1.7-0.3c0.6-0.3,1.3-0.3,1.9,0c0.6,0.3,1.1,0.7,1.4,1.4c0.1,0.2,0.1,0.4,0.2,0.6l7.2,1.7c0,0,0.1,0,0.1,0 c0,0,0,0,0.1-0.1C44.9,37,44.9,36.9,44.9,36.9C44.9,36.9,44.9,36.9,44.9,36.9L44.9,36.9z M25,27.5l-1.7-1v-2l1.7-1l1.7,1v2L25,27.5z M23.3,16.7c0-0.2,0-0.5,0.1-0.7c0.1-0.2,0.2-0.4,0.3-0.6c0.2-0.2,0.3-0.3,0.5-0.4c0.2-0.1,0.4-0.2,0.7-0.2c0.2,0,0.5,0,0.7,0.1 c0.2,0.1,0.4,0.2,0.6,0.3c0.2,0.2,0.3,0.3,0.4,0.6c0.1,0.2,0.2,0.4,0.2,0.7c0,0.1,0,0.1,0,0.2v3.5l-1.7,1l-1.7-1V16.7z M18.2,31.5 c-0.4,0.2-0.9,0.3-1.3,0.1c-0.4-0.1-0.8-0.4-1-0.8c-0.2-0.4-0.3-0.9-0.2-1.3c0.1-0.4,0.4-0.8,0.8-1.1l3.1-1.8l1.7,1v2L18.2,31.5z M34.2,30.8c-0.1,0.2-0.3,0.4-0.5,0.5c-0.2,0.1-0.4,0.2-0.6,0.3c-0.2,0.1-0.5,0.1-0.7,0c-0.2,0-0.4-0.1-0.6-0.2l-3-1.8v-2l1.7-1 l3,1.8c0.4,0.2,0.7,0.6,0.8,1.1C34.5,29.9,34.4,30.4,34.2,30.8L34.2,30.8z"></path> <radialGradient id="SVGID_00000047052912848276770670000018433146723365196171_" cx="-184.0556" cy="416.1732" r="1" gradientTransform="matrix(63.5114 0 0 -63.4994 11684.8828 26421.916)" gradientUnits="userSpaceOnUse"> <stop offset="0.21" style="stop-color:#9AA2B8"></stop> <stop offset="0.35" style="stop-color:#CED2DE"></stop> <stop offset="0.46" style="stop-color:#F4F4FA"></stop> <stop offset="0.54" style="stop-color:#F4F4FA"></stop> <stop offset="0.55" style="stop-color:#F4F4FA"></stop> <stop offset="0.63" style="stop-color:#B6BED0"></stop> <stop offset="0.74" style="stop-color:#737B95"></stop> <stop offset="0.77" style="stop-color:#7A829B"></stop> <stop offset="0.81" style="stop-color:#8E94AB"></stop> <stop offset="0.85" style="stop-color:#AFB3C5"></stop> <stop offset="0.88" style="stop-color:#CACCDB"></stop> <stop offset="0.92" style="stop-color:#E6E7F0"></stop> <stop offset="0.94" style="stop-color:#F4F4FA"></stop> </radialGradient> <path style="fill:url(#SVGID_00000047052912848276770670000018433146723365196171_);" d="M44.9,36.4l-5-5.4c-0.3,0.1-0.6,0.2-1,0.2 c-0.3,0-0.7-0.1-1-0.2c-0.3-0.1-0.6-0.3-0.8-0.6c-0.2-0.2-0.4-0.5-0.5-0.8c-0.1-0.2-0.1-0.4-0.2-0.6c-0.1-0.6-0.3-1.1-0.6-1.6 c-0.3-0.5-0.8-0.9-1.3-1.2l-2-1.2l9.1-5.2l-1-1.7l-10.1,5.8l-1.8-1v-2L38.8,15l-1-1.7l-9.1,5.3v-2.3c0-0.6-0.1-1.2-0.4-1.7 c-0.3-0.5-0.6-1-1.1-1.3c-0.3-0.2-0.5-0.5-0.7-0.7c-0.2-0.3-0.3-0.6-0.3-0.9c0-0.3,0-0.7,0.1-1c0.1-0.3,0.2-0.6,0.4-0.9 c0.1-0.2,0.3-0.3,0.5-0.5l-2.1-7c0,0,0,0,0-0.1c0,0,0,0-0.1,0c0,0-0.1,0-0.1,0c0,0,0,0,0,0.1l-2.1,7c0.3,0.2,0.5,0.5,0.7,0.7 c0.2,0.3,0.3,0.6,0.3,0.9c0,0.3,0,0.7-0.1,1c-0.1,0.3-0.2,0.6-0.4,0.9c-0.1,0.2-0.3,0.3-0.5,0.5c-0.5,0.3-0.8,0.8-1.1,1.3 s-0.4,1.1-0.4,1.7v2.3l-9.1-5.3l-1,1.8l10.1,5.8v2l-1.7,1L9.4,18l-1,1.7l9.1,5.2l-2,1.2c-0.5,0.3-1,0.7-1.3,1.2 c-0.3,0.5-0.5,1-0.6,1.6c0,0.3-0.1,0.6-0.3,0.9c-0.2,0.3-0.4,0.5-0.6,0.7c-0.3,0.2-0.6,0.3-0.9,0.4s-0.7,0.1-1,0.1 c-0.2,0-0.4-0.1-0.6-0.2l-5,5.4c0,0,0,0,0,0.1c0,0,0,0.1,0,0.1c0,0,0,0,0.1,0c0,0,0,0,0.1,0l7.2-1.7c0.1-0.7,0.4-1.3,1-1.7 c0.5-0.4,1.2-0.6,1.9-0.5c0.2,0,0.4,0.1,0.6,0.2c0.5,0.2,1.1,0.3,1.7,0.3c0.6,0,1.1-0.2,1.7-0.5l2-1.2V42h2V30.4l1.7-1l1.8,1V42h2 V31.5l2,1.2c0.5,0.3,1.1,0.5,1.7,0.5c0.6,0,1.2-0.1,1.7-0.3c0.6-0.3,1.3-0.3,1.9,0c0.6,0.3,1.1,0.7,1.4,1.4c0.1,0.2,0.1,0.4,0.2,0.6 l7.2,1.7c0,0,0.1,0,0.1,0c0,0,0,0,0.1-0.1C44.9,36.5,44.9,36.4,44.9,36.4C44.9,36.4,44.9,36.4,44.9,36.4z M25,27l-1.7-1v-2l1.7-1 l1.8,1v2L25,27z M23.3,16.2c0-0.2,0-0.5,0.1-0.7c0.1-0.2,0.2-0.4,0.3-0.6c0.2-0.2,0.3-0.3,0.5-0.4c0.2-0.1,0.4-0.2,0.7-0.2 c0.2,0,0.5,0,0.7,0.1c0.2,0.1,0.4,0.2,0.6,0.3c0.2,0.2,0.3,0.3,0.4,0.5c0.1,0.2,0.2,0.4,0.2,0.7c0,0.1,0,0.1,0,0.2v3.5l-1.8,1 l-1.7-1V16.2z M18.2,31c-0.4,0.2-0.9,0.3-1.3,0.1c-0.4-0.1-0.8-0.4-1-0.8c-0.2-0.4-0.3-0.9-0.2-1.3c0.1-0.4,0.4-0.8,0.8-1.1l3.1-1.8 l1.8,1v2L18.2,31z M34.2,30.3c-0.2,0.4-0.6,0.7-1.1,0.8c-0.4,0.1-0.9,0.1-1.3-0.2l-3-1.8v-2l1.8-1l3,1.8c0.4,0.2,0.7,0.6,0.8,1.1 C34.5,29.4,34.4,29.9,34.2,30.3L34.2,30.3z"></path> <path class="st4" d="M25,20.8v-0.1l-1.7-1l-0.1,0.1L25,20.8z"></path> <linearGradient id="SVGID_00000051352379731303933230000000591660185248155554_" gradientUnits="userSpaceOnUse" x1="29.544" y1="34.9316" x2="25.737" y2="34.9316" gradientTransform="matrix(1 0 0 -1 0 52)"> <stop offset="0" style="stop-color:#FFFFFF"></stop> <stop offset="0.18" style="stop-color:#CDCDCD"></stop> <stop offset="0.37" style="stop-color:#9F9F9F"></stop> <stop offset="0.55" style="stop-color:#7C7C7C"></stop> <stop offset="0.72" style="stop-color:#626262"></stop> <stop offset="0.88" style="stop-color:#525252"></stop> <stop offset="1" style="stop-color:#4D4D4D"></stop> </linearGradient> <path style="fill:url(#SVGID_00000051352379731303933230000000591660185248155554_);" d="M25,14.5v-0.1c-0.5,0-1,0.2-1.3,0.6 c-0.4,0.4-0.6,0.8-0.6,1.3v3.6l0.1-0.1v-3.5c0-0.2,0-0.5,0.1-0.7c0.1-0.2,0.2-0.4,0.4-0.6c0.2-0.2,0.4-0.3,0.6-0.4 C24.5,14.5,24.7,14.5,25,14.5L25,14.5z"></path> <path class="st6" d="M25,22.8l-1.8,1.1l0.1,0.1l1.7-1V22.8z"></path> <path class="st7" d="M25,2.2V2c0,0-0.1,0-0.1,0c0,0,0,0,0,0.1l-2.2,7.1l0.1,0L25,2.2z"></path> <linearGradient id="SVGID_00000034801903384663910620000009516995749903204018_" gradientUnits="userSpaceOnUse" x1="22.5571" y1="41.2356" x2="22.5571" y2="32.3966" gradientTransform="matrix(1 0 0 -1 0 52)"> <stop offset="0" style="stop-color:#BDBFC1"></stop> <stop offset="0.11" style="stop-color:#C6C7C9"></stop> <stop offset="0.28" style="stop-color:#DDDEDF"></stop> <stop offset="0.48" style="stop-color:#FFFFFF"></stop> <stop offset="1" style="stop-color:#E8E7E8"></stop> </linearGradient> <path style="fill:url(#SVGID_00000034801903384663910620000009516995749903204018_);" d="M21.4,18.7v-2.5c0-0.6,0.1-1.1,0.4-1.6 c0.3-0.5,0.6-0.9,1.1-1.3c0.3-0.2,0.5-0.5,0.7-0.8c0.2-0.3,0.3-0.6,0.3-1c0-0.3,0-0.7-0.1-1c-0.1-0.3-0.2-0.6-0.4-0.9 c-0.1-0.2-0.3-0.3-0.5-0.5l-0.1,0c0.3,0.2,0.5,0.4,0.6,0.7c0.2,0.3,0.3,0.6,0.3,0.9c0,0.3,0,0.7-0.1,1c-0.1,0.3-0.2,0.6-0.4,0.9 c-0.1,0.2-0.3,0.3-0.5,0.5c-0.5,0.3-0.8,0.8-1.1,1.3c-0.3,0.5-0.4,1.1-0.4,1.7v2.3L21.4,18.7z"></path> <path class="st9" d="M11.2,15l10.1,5.8l0.1-0.1L11.3,15L11.2,15z"></path> <path class="st10" d="M21.3,22.8l0.1,0.1v-2.2l-0.1,0.1V22.8z"></path> <path class="st7" d="M11.3,15l0.9-1.6l0-0.2l-1,1.8L11.3,15z"></path> <path class="st4" d="M21.3,18.5l-9.1-5.2l0,0.2l9.2,5.3L21.3,18.5z"></path> <path class="st10" d="M25,20.8v-0.1l1.7-1l0.1,0.1L25,20.8z"></path> <linearGradient id="SVGID_00000026849302095931645240000016229981651992846212_" gradientUnits="userSpaceOnUse" x1="29.5438" y1="34.9316" x2="25.7366" y2="34.9316" gradientTransform="matrix(1 0 0 -1 0 52)"> <stop offset="0" style="stop-color:#F2F2F2"></stop> <stop offset="5.000000e-02" style="stop-color:#E6E6E6"></stop> <stop offset="0.27" style="stop-color:#B8B8B8"></stop> <stop offset="0.48" style="stop-color:#959595"></stop> <stop offset="0.68" style="stop-color:#7B7B7B"></stop> <stop offset="0.86" style="stop-color:#6B6B6B"></stop> <stop offset="1" style="stop-color:#666666"></stop> </linearGradient> <path style="fill:url(#SVGID_00000026849302095931645240000016229981651992846212_);" d="M25,14.5v-0.1c0.5,0,1,0.2,1.3,0.6 c0.4,0.4,0.6,0.8,0.6,1.3v3.6l-0.1-0.1v-3.5c0-0.2,0-0.5-0.1-0.7c-0.1-0.2-0.2-0.4-0.4-0.6c-0.2-0.2-0.4-0.3-0.6-0.4 C25.5,14.5,25.3,14.5,25,14.5L25,14.5z"></path> <path class="st9" d="M25,22.8l1.8,1.1L26.7,24L25,23V22.8z"></path> <path class="st10" d="M25,2.2V2C25,2,25.1,2,25,2.2c0.1-0.1,0.1-0.1,0.1,0l2.2,7.1l-0.1,0L25,2.2z"></path> <linearGradient id="SVGID_00000165198730327112068480000002129343835787675013_" gradientUnits="userSpaceOnUse" x1="27.4428" y1="41.4798" x2="27.4428" y2="31.2632" gradientTransform="matrix(1 0 0 -1 0 52)"> <stop offset="0" style="stop-color:#4D4D4D"></stop> <stop offset="7.000000e-02" style="stop-color:#525252"></stop> <stop offset="0.15" style="stop-color:#616161"></stop> <stop offset="0.24" style="stop-color:#7A7A7A"></stop> <stop offset="0.34" style="stop-color:#9C9C9C"></stop> <stop offset="0.44" style="stop-color:#C8C8C8"></stop> <stop offset="0.54" style="stop-color:#FFFFFF"></stop> <stop offset="0.63" style="stop-color:#CBCBCB"></stop> <stop offset="0.71" style="stop-color:#9E9E9E"></stop> <stop offset="0.8" style="stop-color:#7B7B7B"></stop> <stop offset="0.87" style="stop-color:#616161"></stop> <stop offset="0.94" style="stop-color:#525252"></stop> <stop offset="1" style="stop-color:#4D4D4D"></stop> </linearGradient> <path style="fill:url(#SVGID_00000165198730327112068480000002129343835787675013_);" d="M28.6,18.7v-2.5c0-0.6-0.1-1.1-0.4-1.6 c-0.2-0.5-0.6-0.9-1.1-1.3c-0.5-0.4-0.9-1-1-1.7c-0.1-0.7,0.1-1.4,0.5-1.9c0.1-0.2,0.3-0.3,0.5-0.5l0.1,0c-0.3,0.2-0.5,0.4-0.6,0.7 c-0.2,0.3-0.3,0.6-0.3,0.9c0,0.3,0,0.7,0.1,1c0.1,0.3,0.2,0.6,0.4,0.9c0.1,0.2,0.3,0.3,0.5,0.5c0.5,0.3,0.8,0.8,1.1,1.3 c0.3,0.5,0.4,1.1,0.4,1.7v2.3L28.6,18.7z"></path> <path class="st6" d="M38.8,15l-10.1,5.8l-0.1-0.1L38.7,15L38.8,15z"></path> <path class="st13" d="M28.7,22.8l-0.1,0.1v-2.2l0.1,0.1V22.8z"></path> <path class="st14" d="M38.7,15l-0.9-1.6l0-0.2l1,1.8L38.7,15z"></path> <path class="st10" d="M28.7,18.5l9.1-5.2l0,0.2l-9.2,5.3L28.7,18.5z"></path> <path class="st10" d="M21.4,27.1l-0.1,0.1v2l0.1,0.1V27.1z"></path> <linearGradient id="SVGID_00000106131311536308318270000000975597581189962653_" gradientUnits="userSpaceOnUse" x1="19.7246" y1="20.051" x2="19.4009" y2="20.6454" gradientTransform="matrix(1 0 0 -1 0 52)"> <stop offset="0" style="stop-color:#FFFFFF"></stop> <stop offset="1" style="stop-color:#666666"></stop> </linearGradient> <path style="fill:url(#SVGID_00000106131311536308318270000000975597581189962653_);" d="M15.8,30.3l-0.1,0.1 c0.3,0.4,0.7,0.7,1.1,0.9c0.5,0.1,1,0.1,1.4-0.2l3.1-1.8l-0.1-0.1l-3,1.8c-0.4,0.2-0.9,0.3-1.3,0.2C16.5,31,16.1,30.7,15.8,30.3z"></path> <path class="st4" d="M23.2,26.1l1.8,1.1V27l-1.7-1L23.2,26.1z"></path> <linearGradient id="SVGID_00000077295155030624552930000017133932807175856268_" gradientUnits="userSpaceOnUse" x1="9.3985" y1="15.6176" x2="9.5489" y2="15.4614" gradientTransform="matrix(1 0 0 -1 0 52)"> <stop offset="0" style="stop-color:#FFFFFF"></stop> <stop offset="8.000000e-02" style="stop-color:#E5E5E5"></stop> <stop offset="0.25" style="stop-color:#AFAFAF"></stop> <stop offset="0.43" style="stop-color:#838383"></stop> <stop offset="0.59" style="stop-color:#606060"></stop> <stop offset="0.74" style="stop-color:#474747"></stop> <stop offset="0.88" style="stop-color:#383838"></stop> <stop offset="1" style="stop-color:#333333"></stop> </linearGradient> <path style="fill:url(#SVGID_00000077295155030624552930000017133932807175856268_);" d="M5.2,36.4l-0.1,0.1c0,0,0,0,0.1,0 s0.1,0,0.1,0l7.2-1.7l-0.1-0.1L5.2,36.4z"></path> <linearGradient id="SVGID_00000036240074852552817660000006095487244665356212_" gradientUnits="userSpaceOnUse" x1="22.5989" y1="22.0524" x2="14.394" y2="18.2902" gradientTransform="matrix(1 0 0 -1 0 52)"> <stop offset="0" style="stop-color:#1A1A1A"></stop> <stop offset="0.12" style="stop-color:#1E1E1E"></stop> <stop offset="0.23" style="stop-color:#292929"></stop> <stop offset="0.33" style="stop-color:#3C3C3C"></stop> <stop offset="0.43" style="stop-color:#565656"></stop> <stop offset="0.53" style="stop-color:#787878"></stop> <stop offset="0.63" style="stop-color:#9C9C9C"></stop> <stop offset="0.76" style="stop-color:#646464"></stop> <stop offset="0.86" style="stop-color:#3C3C3C"></stop> <stop offset="0.95" style="stop-color:#232323"></stop> <stop offset="1" style="stop-color:#1A1A1A"></stop> </linearGradient> <path style="fill:url(#SVGID_00000036240074852552817660000006095487244665356212_);" d="M21.4,31.3l-2.2,1.3 c-0.5,0.3-1,0.5-1.6,0.5c-0.6,0-1.1-0.1-1.7-0.3c-0.4-0.2-0.8-0.2-1.2-0.2c-0.4,0-0.8,0.1-1.2,0.4c-0.3,0.2-0.6,0.5-0.8,0.8 c-0.2,0.3-0.4,0.7-0.4,1.1l0.1,0.1c0.1-0.7,0.4-1.3,1-1.7c0.5-0.4,1.2-0.6,1.9-0.5c0.2,0,0.4,0.1,0.6,0.2c0.5,0.2,1.1,0.3,1.7,0.3 c0.6,0,1.2-0.2,1.7-0.5l2-1.2L21.4,31.3z"></path> <path class="st13" d="M23.2,42V30.3l-0.1-0.1v11.6L23.2,42z"></path> <path class="st6" d="M25,29.3v-0.1l-1.8,1.1l0.1,0.1L25,29.3z"></path> <path class="st18" d="M23.1,41.9h-1.7L21.3,42h2L23.1,41.9z"></path> <path class="st10" d="M21.3,31.5V42l0.1-0.1V31.3L21.3,31.5z"></path> <path class="st9" d="M21.4,27.1l-0.1,0.1l-1.8-1.1l0-0.1L21.4,27.1z"></path> <linearGradient id="SVGID_00000087383749509036104440000005664665996942313142_" gradientUnits="userSpaceOnUse" x1="19.1059" y1="20.4608" x2="18.4712" y2="21.8977" gradientTransform="matrix(1 0 0 -1 0 52)"> <stop offset="0" style="stop-color:#666666"></stop> <stop offset="1" style="stop-color:#333333"></stop> </linearGradient> <path style="fill:url(#SVGID_00000087383749509036104440000005664665996942313142_);" d="M15.8,30.3l-0.1,0.1 c-0.2-0.4-0.3-0.9-0.2-1.4c0.1-0.5,0.4-0.9,0.9-1.2l3.1-1.8v0.1l-3.1,1.8c-0.4,0.2-0.7,0.6-0.8,1.1C15.6,29.4,15.6,29.9,15.8,30.3 L15.8,30.3z"></path> <path class="st13" d="M23.2,26.1v-2.2l0.1,0.1L23.2,26.1L23.2,26.1z"></path> <path class="st7" d="M5.2,36.5l-0.1,0.1c0,0,0,0,0-0.1c0,0,0-0.1,0-0.1l5-5.4l0,0.1L5.2,36.5z"></path> <linearGradient id="SVGID_00000085936229755813334610000004581348031041852831_" gradientUnits="userSpaceOnUse" x1="19.5517" y1="26.4643" x2="11.1307" y2="21.9872" gradientTransform="matrix(1 0 0 -1 0 52)"> <stop offset="0" style="stop-color:#E0E0E0"></stop> <stop offset="0.15" style="stop-color:#D6D6D6"></stop> <stop offset="0.41" style="stop-color:#BCBCBC"></stop> <stop offset="0.59" style="stop-color:#A6A6A6"></stop> <stop offset="0.62" style="stop-color:#BFBFBF"></stop> <stop offset="0.68" style="stop-color:#DBDBDB"></stop> <stop offset="0.73" style="stop-color:#EFEFEF"></stop> <stop offset="0.78" style="stop-color:#FBFBFB"></stop> <stop offset="0.83" style="stop-color:#FFFFFF"></stop> <stop offset="1" style="stop-color:#ADADAD"></stop> </linearGradient> <path style="fill:url(#SVGID_00000085936229755813334610000004581348031041852831_);" d="M17.8,25l-2.2,1.3 c-0.5,0.3-0.9,0.7-1.2,1.1c-0.3,0.5-0.5,1-0.6,1.6c0,0.4-0.2,0.8-0.4,1.1c-0.2,0.3-0.5,0.6-0.9,0.8c-0.3,0.2-0.7,0.3-1.1,0.4 c-0.4,0-0.8,0-1.2-0.2V31c0.6,0.2,1.3,0.2,1.9,0c0.6-0.3,1.1-0.7,1.4-1.3c0.1-0.2,0.1-0.4,0.2-0.6c0.1-0.6,0.3-1.1,0.6-1.6 c0.3-0.5,0.8-0.9,1.3-1.2l2-1.2H17.8z"></path> <path class="st4" d="M9.4,18l10.1,5.8V24l-10-5.8L9.4,18z"></path> <path class="st10" d="M21.3,22.8l0.1,0.1L19.5,24v-0.1L21.3,22.8z"></path> <path class="st7" d="M9.5,18.2l-0.9,1.6l-0.2,0l1-1.8L9.5,18.2z"></path> <path class="st9" d="M17.5,25l-9.1-5.2l0.2,0l9.2,5.3H17.5z"></path> <path class="st6" d="M28.6,27.1l0.1,0.1l1.8-1.1V26L28.6,27.1z"></path> <linearGradient id="SVGID_00000174581517725424378410000012557136178865172374_" gradientUnits="userSpaceOnUse" x1="37.478" y1="20.5903" x2="35.9879" y2="21.5605" gradientTransform="matrix(1 0 0 -1 0 52)"> <stop offset="0" style="stop-color:#FEFEFE"></stop> <stop offset="0.25" style="stop-color:#C8C8C8"></stop> <stop offset="0.49" style="stop-color:#9E9E9E"></stop> <stop offset="0.7" style="stop-color:#7F7F7F"></stop> <stop offset="0.87" style="stop-color:#6D6D6D"></stop> <stop offset="1" style="stop-color:#666666"></stop> </linearGradient> <path style="fill:url(#SVGID_00000174581517725424378410000012557136178865172374_);" d="M34.2,30.3l0.1,0.1 c0.2-0.4,0.3-0.9,0.2-1.4c-0.1-0.5-0.4-0.9-0.9-1.1L30.5,26v0.1l3,1.8c0.4,0.2,0.7,0.6,0.8,1.1C34.5,29.4,34.4,29.9,34.2,30.3z"></path> <path class="st10" d="M26.8,26.1v-2.2L26.7,24v2L26.8,26.1z"></path> <path class="st22" d="M44.8,36.4l0.1,0.1c0,0,0,0,0-0.1c0,0,0-0.1,0-0.1l-5-5.4l0,0.1L44.8,36.4z"></path> <linearGradient id="SVGID_00000031168757500937480330000012791716220602463655_" gradientUnits="userSpaceOnUse" x1="34.9512" y1="23.8592" x2="42.6597" y2="23.8592" gradientTransform="matrix(1 0 0 -1 0 52)"> <stop offset="0" style="stop-color:#E0E0E0"></stop> <stop offset="0.15" style="stop-color:#D6D6D6"></stop> <stop offset="0.41" style="stop-color:#BCBCBC"></stop> <stop offset="0.59" style="stop-color:#A6A6A6"></stop> <stop offset="0.65" style="stop-color:#BFBFBF"></stop> <stop offset="0.74" style="stop-color:#DBDBDB"></stop> <stop offset="0.83" style="stop-color:#EFEFEF"></stop> <stop offset="0.91" style="stop-color:#FBFBFB"></stop> <stop offset="1" style="stop-color:#FFFFFF"></stop> </linearGradient> <path style="fill:url(#SVGID_00000031168757500937480330000012791716220602463655_);" d="M32.2,25l2.2,1.3c0.5,0.3,0.9,0.7,1.2,1.1 c0.3,0.5,0.5,1,0.6,1.6c0,0.4,0.2,0.8,0.4,1.1s0.5,0.6,0.9,0.8c0.3,0.2,0.7,0.3,1.1,0.4c0.4,0,0.8,0,1.2-0.2l0-0.1 c-0.3,0.1-0.6,0.2-1,0.2c-0.3,0-0.7-0.1-1-0.2c-0.3-0.1-0.6-0.3-0.8-0.5c-0.2-0.2-0.4-0.5-0.6-0.8c-0.1-0.2-0.1-0.4-0.2-0.6 c-0.1-0.6-0.3-1.1-0.6-1.6c-0.3-0.5-0.8-0.9-1.3-1.2l-2-1.2H32.2z"></path> <path class="st10" d="M40.6,18l-10.1,5.8V24l10-5.8L40.6,18z"></path> <path class="st4" d="M28.7,22.8l-0.1,0.1l1.9,1.1v-0.1L28.7,22.8z"></path> <path class="st14" d="M40.5,18.2l0.9,1.6l0.2,0l-1-1.8L40.5,18.2z"></path> <path class="st6" d="M32.5,25l9.1-5.2l-0.2,0L32.2,25H32.5z"></path> <path class="st13" d="M28.6,27.1l0.1,0.1v2l-0.1,0.1V27.1z"></path> <linearGradient id="SVGID_00000108307182277815299570000015138706211467189150_" gradientUnits="userSpaceOnUse" x1="36.3939" y1="18.9688" x2="34.906" y2="19.9416" gradientTransform="matrix(1 0 0 -1 0 52)"> <stop offset="0" style="stop-color:#FFFFFF"></stop> <stop offset="0.12" style="stop-color:#F8F8F8"></stop> <stop offset="0.31" style="stop-color:#E5E5E5"></stop> <stop offset="0.52" style="stop-color:#C5C5C5"></stop> <stop offset="0.76" style="stop-color:#999999"></stop> <stop offset="1" style="stop-color:#666666"></stop> </linearGradient> <path style="fill:url(#SVGID_00000108307182277815299570000015138706211467189150_);" d="M34.2,30.3l0.1,0.1 c-0.3,0.4-0.7,0.7-1.1,0.8c-0.5,0.1-1,0.1-1.4-0.2l-3.1-1.8l0.1-0.1l3,1.8c0.4,0.2,0.9,0.3,1.3,0.2C33.6,31,33.9,30.7,34.2,30.3z"></path> <path class="st7" d="M26.8,26.1L25,27.2V27l1.7-1L26.8,26.1z"></path> <linearGradient id="SVGID_00000019661929613630053990000000101546834291670419_" gradientUnits="userSpaceOnUse" x1="45.6398" y1="18.2845" x2="45.4595" y2="18.2013" gradientTransform="matrix(1 0 0 -1 0 52)"> <stop offset="0" style="stop-color:#CCCCCC"></stop> <stop offset="0.12" style="stop-color:#BABABA"></stop> <stop offset="0.32" style="stop-color:#A1A1A1"></stop> <stop offset="0.53" style="stop-color:#8E8E8E"></stop> <stop offset="0.75" style="stop-color:#848484"></stop> <stop offset="1" style="stop-color:#808080"></stop> </linearGradient> <path style="fill:url(#SVGID_00000019661929613630053990000000101546834291670419_);" d="M44.8,36.5l0.1,0.1c0,0,0,0-0.1,0.1 c0,0-0.1,0-0.1,0l-7.2-1.7l0.1-0.1L44.8,36.5z"></path> <linearGradient id="SVGID_00000102510809090388631490000007366755565091409845_" gradientUnits="userSpaceOnUse" x1="31.2869" y1="18.8783" x2="40.4671" y2="18.8783" gradientTransform="matrix(1 0 0 -1 0 52)"> <stop offset="0" style="stop-color:#999999"></stop> <stop offset="9.000000e-02" style="stop-color:#949494"></stop> <stop offset="0.19" style="stop-color:#868686"></stop> <stop offset="0.3" style="stop-color:#6F6F6F"></stop> <stop offset="0.41" style="stop-color:#4F4F4F"></stop> <stop offset="0.52" style="stop-color:#262626"></stop> <stop offset="0.55" style="stop-color:#1A1A1A"></stop> <stop offset="0.6" style="stop-color:#202020"></stop> <stop offset="0.66" style="stop-color:#313131"></stop> <stop offset="0.73" style="stop-color:#4E4E4E"></stop> <stop offset="0.8" style="stop-color:#767676"></stop> <stop offset="0.88" style="stop-color:#A9A9A9"></stop> <stop offset="0.97" style="stop-color:#E6E6E6"></stop> <stop offset="1" style="stop-color:#FFFFFF"></stop> </linearGradient> <path style="fill:url(#SVGID_00000102510809090388631490000007366755565091409845_);" d="M28.6,31.3l2.2,1.3c0.5,0.3,1,0.4,1.6,0.5 c0.6,0,1.1-0.1,1.6-0.3c0.3-0.1,0.7-0.2,1-0.2c0.3,0,0.7,0.1,1,0.2c0.3,0.1,0.6,0.3,0.9,0.6c0.2,0.2,0.4,0.5,0.6,0.8 c0.1,0.2,0.1,0.4,0.2,0.6l-0.1,0.1c0-0.4-0.2-0.8-0.4-1.1c-0.2-0.3-0.5-0.6-0.9-0.8c-0.3-0.2-0.7-0.3-1.1-0.3c-0.4,0-0.8,0-1.1,0.2 c-0.5,0.2-1.1,0.3-1.7,0.3c-0.6,0-1.1-0.2-1.7-0.5l-2-1.1L28.6,31.3z"></path> <path class="st10" d="M26.7,42V30.3l0.1-0.1v11.6L26.7,42z"></path> <path class="st9" d="M25,29.3l0-0.1h0l1.8,1.1l-0.1,0.1L25,29.3z"></path> <path class="st18" d="M26.8,41.9h1.8l0.1,0.1h-2L26.8,41.9z"></path> <path class="st13" d="M28.7,31.6V42l-0.1-0.1V31.3L28.7,31.6z"></path> <linearGradient id="SVGID_00000147200446553469214780000000278864383611173760_" gradientUnits="userSpaceOnUse" x1="29.1605" y1="48.764" x2="26.0641" y2="48.764" gradientTransform="matrix(1 0 0 -1 0 52)"> <stop offset="0" style="stop-color:#CCCCCC"></stop> <stop offset="1" style="stop-color:#3D3D3D"></stop> </linearGradient> <path style="fill:url(#SVGID_00000147200446553469214780000000278864383611173760_);" d="M25.5,1.8l1,3.3L26.6,5l-1-3.2 c0-0.1-0.1-0.2-0.2-0.3c-0.1-0.1-0.2-0.1-0.3-0.1v0.1c0.1,0,0.2,0,0.3,0.1C25.4,1.7,25.4,1.7,25.5,1.8z"></path> <linearGradient id="SVGID_00000165217571889208839300000016588117836856763836_" gradientUnits="userSpaceOnUse" x1="43.3426" y1="14.8527" x2="44.0383" y2="16.3105" gradientTransform="matrix(1 0 0 -1 0 52)"> <stop offset="0" style="stop-color:#FFFFFF"></stop> <stop offset="0.14" style="stop-color:#FAFAFA"></stop> <stop offset="0.31" style="stop-color:#ECECEC"></stop> <stop offset="0.48" style="stop-color:#D5D5D5"></stop> <stop offset="0.67" style="stop-color:#B4B4B4"></stop> <stop offset="0.86" style="stop-color:#8B8B8B"></stop> <stop offset="1" style="stop-color:#666666"></stop> </linearGradient> <path style="fill:url(#SVGID_00000165217571889208839300000016588117836856763836_);" d="M45.4,36.1l-2.3-2.5H43L45.4,36.1 c0,0.1,0,0.2,0,0.3c0,0.1,0,0.2-0.1,0.3l0.1,0.1c0.1-0.1,0.1-0.2,0.1-0.3C45.6,36.4,45.5,36.2,45.4,36.1z"></path> <linearGradient id="SVGID_00000149345812459096942320000009051296307529329314_" gradientUnits="userSpaceOnUse" x1="-0.932" y1="457.0712" x2="-0.2421" y2="450.2082" gradientTransform="matrix(1 0 0 -1 0 52)"> <stop offset="0" style="stop-color:#FFFFFF"></stop> <stop offset="0.14" style="stop-color:#FAFAFA"></stop> <stop offset="0.31" style="stop-color:#ECECEC"></stop> <stop offset="0.48" style="stop-color:#D5D5D5"></stop> <stop offset="0.67" style="stop-color:#B4B4B4"></stop> <stop offset="0.86" style="stop-color:#8B8B8B"></stop> <stop offset="1" style="stop-color:#666666"></stop> </linearGradient> <path style="fill:url(#SVGID_00000149345812459096942320000009051296307529329314_);" d="M45.3,36.8c-0.1,0.1-0.1,0.2-0.2,0.2 c-0.1,0-0.2,0.1-0.3,0l-3.3-0.7l0.1,0.1l3.2,0.7h0.1c0.1,0,0.2,0,0.3-0.1c0.1-0.1,0.2-0.1,0.2-0.2L45.3,36.8z"></path> <linearGradient id="SVGID_00000040565234126609752810000015245894007631093922_" gradientUnits="userSpaceOnUse" x1="5670.9136" y1="21065.1973" x2="5076.312" y2="18848.3477" gradientTransform="matrix(1 0 0 -1 0 52)"> <stop offset="0" style="stop-color:#FFFFFF"></stop> <stop offset="1" style="stop-color:#231A16"></stop> </linearGradient> <path style="fill:url(#SVGID_00000040565234126609752810000015245894007631093922_);" d="M41.5,36.3c-1.8,2.7-4.3,4.9-7.2,6.4 C31.5,44.3,28.3,45,25,45c-3.3,0-6.5-0.8-9.3-2.3c-2.9-1.5-5.3-3.7-7.2-6.4l-0.1,0.1c1.8,2.7,4.3,4.9,7.2,6.4 c2.9,1.5,6.1,2.3,9.4,2.3c3.3,0,6.5-0.8,9.4-2.3c2.9-1.5,5.4-3.7,7.2-6.4L41.5,36.3z"></path> <linearGradient id="SVGID_00000124874183679148321300000018337311088273859468_" gradientUnits="userSpaceOnUse" x1="7.708" y1="12.7415" x2="6.9013" y2="14.5501" gradientTransform="matrix(1 0 0 -1 0 52)"> <stop offset="0" style="stop-color:#F2F2F2"></stop> <stop offset="1" style="stop-color:#1A1A1A"></stop> </linearGradient> <path style="fill:url(#SVGID_00000124874183679148321300000018337311088273859468_);" d="M5,37.1L5,37.1l3.4-0.7l0.1-0.1L5.1,37 c-0.1,0-0.2,0-0.3,0c-0.1,0-0.2-0.1-0.2-0.2l-0.1,0.1C4.6,36.9,4.6,37,4.7,37C4.8,37.1,4.9,37.1,5,37.1z"></path> <linearGradient id="SVGID_00000050648023813380843790000008822189523471975593_" gradientUnits="userSpaceOnUse" x1="2463.3896" y1="4087.593" x2="2448.6396" y2="4063.1631" gradientTransform="matrix(1 0 0 -1 0 52)"> <stop offset="0" style="stop-color:#F2F2F2"></stop> <stop offset="1" style="stop-color:#1A1A1A"></stop> </linearGradient> <path style="fill:url(#SVGID_00000050648023813380843790000008822189523471975593_);" d="M4.6,36.2c-0.1,0.1-0.1,0.2-0.1,0.4 c0,0.1,0,0.2,0.1,0.3l0.1-0.1c-0.1-0.1-0.1-0.2-0.1-0.3C4.5,36.4,4.6,36.3,4.6,36.2l2.3-2.5H6.8L4.6,36.2z"></path> <linearGradient id="SVGID_00000019664940631559628940000003523231421372703673_" gradientUnits="userSpaceOnUse" x1="33313.0898" y1="21570.9297" x2="29807.7891" y2="19303.7285" gradientTransform="matrix(1 0 0 -1 0 52)"> <stop offset="0" style="stop-color:#FFFFFF"></stop> <stop offset="1" style="stop-color:#231A16"></stop> </linearGradient> <path style="fill:url(#SVGID_00000019664940631559628940000003523231421372703673_);" d="M4.9,25c0,3,0.7,6,1.9,8.7H7 c-1.4-2.9-2.1-6.2-2-9.4c0.1-3.3,1-6.4,2.7-9.3c1.6-2.8,3.9-5.2,6.7-6.9s5.9-2.8,9.1-3l-0.1-0.1c-5,0.4-9.7,2.7-13.2,6.4 C6.8,15.1,4.9,20,4.9,25z"></path> <linearGradient id="SVGID_00000022561966274729939300000018040778118792176812_" gradientUnits="userSpaceOnUse" x1="2052.25" y1="48.764" x2="2029.4" y2="48.764" gradientTransform="matrix(1 0 0 -1 0 52)"> <stop offset="0" style="stop-color:#CCCCCC"></stop> <stop offset="1" style="stop-color:#3D3D3D"></stop> </linearGradient> <path style="fill:url(#SVGID_00000022561966274729939300000018040778118792176812_);" d="M24.4,1.8l-1,3.2l0.1,0.1l1-3.3 c0-0.1,0.1-0.2,0.2-0.2c0.1-0.1,0.2-0.1,0.3-0.1V1.4c-0.1,0-0.2,0-0.4,0.1C24.5,1.6,24.5,1.7,24.4,1.8z"></path> <radialGradient id="SVGID_00000152246319330814921620000007426185074078760334_" cx="-184.5542" cy="417.1443" r="1" gradientTransform="matrix(76.4564 0 0 -76.1992 14099.5342 31778.8438)" gradientUnits="userSpaceOnUse"> <stop offset="0.21" style="stop-color:#9AA2B8"></stop> <stop offset="0.35" style="stop-color:#CED2DE"></stop> <stop offset="0.46" style="stop-color:#F4F4FA"></stop> <stop offset="0.54" style="stop-color:#F4F4FA"></stop> <stop offset="0.55" style="stop-color:#F4F4FA"></stop> <stop offset="0.63" style="stop-color:#B6BED0"></stop> <stop offset="0.74" style="stop-color:#737B95"></stop> <stop offset="0.77" style="stop-color:#7A829B"></stop> <stop offset="0.81" style="stop-color:#8E94AB"></stop> <stop offset="0.85" style="stop-color:#AFB3C5"></stop> <stop offset="0.88" style="stop-color:#CACCDB"></stop> <stop offset="0.92" style="stop-color:#E6E7F0"></stop> <stop offset="0.94" style="stop-color:#F4F4FA"></stop> </radialGradient> <path style="fill-rule:evenodd;clip-rule:evenodd;fill:url(#SVGID_00000152246319330814921620000007426185074078760334_);" d=" M25,49c13.2,0,24-10.7,24-24C49,11.8,38.3,1,25,1c-4.7,0-9.4,1.4-13.3,4c-4,2.6-7,6.4-8.9,10.8C1.6,18.8,1,21.9,1,25 C1,38.3,11.8,49,25,49z M41.6,36.3l3.4,0.7c0.1,0,0.2,0,0.3-0.1c0.1,0,0.2-0.1,0.2-0.2c0-0.1,0.1-0.2,0.1-0.3c0-0.1,0-0.2-0.1-0.3 l-2.3-2.5c1.4-2.9,2.1-6.2,2-9.4c-0.1-3.3-1-6.4-2.7-9.3c-1.6-2.8-3.9-5.2-6.7-7c-2.8-1.7-5.9-2.8-9.2-3l-1-3.3 c0-0.1-0.1-0.2-0.2-0.2c-0.1-0.1-0.2-0.1-0.3-0.1c-0.1,0-0.2,0-0.3,0.1c-0.1,0.1-0.1,0.1-0.2,0.2l-1.1,3.3c-3.3,0.2-6.4,1.3-9.2,3 c-2.8,1.7-5.1,4.1-6.7,6.9S5.1,21,5,24.3c-0.1,3.3,0.6,6.5,2,9.5l-2.3,2.5c-0.1,0.1-0.1,0.2-0.1,0.3c0,0.1,0,0.2,0.1,0.3 c0,0.1,0.1,0.2,0.2,0.2c0.1,0,0.2,0.1,0.3,0l3.3-0.7c1.8,2.7,4.3,4.9,7.2,6.4c2.9,1.5,6.1,2.3,9.4,2.3c3.3,0,6.5-0.8,9.4-2.3 C37.3,41.3,39.8,39,41.6,36.3z"></path> <linearGradient id="SVGID_00000112629470233214522530000003274005260239982478_" gradientUnits="userSpaceOnUse" x1="50.7448" y1="20.11" x2="22.0966" y2="48.789" gradientTransform="matrix(1 0 0 -1 0 52)"> <stop offset="0" style="stop-color:#FFFFFF"></stop> <stop offset="1" style="stop-color:#231A16"></stop> </linearGradient> <path style="fill:url(#SVGID_00000112629470233214522530000003274005260239982478_);" d="M45.1,25c0-5.1-1.9-9.9-5.4-13.6 c-3.4-3.7-8.1-6-13.2-6.4l-0.1,0.1c3.3,0.2,6.4,1.3,9.2,3c2.8,1.7,5.1,4.1,6.7,6.9c1.6,2.8,2.5,6,2.7,9.3c0.1,3.3-0.6,6.5-2,9.4h0.1 C44.5,31,45.1,28,45.1,25z"></path> </svg>